<?xml version="1.0" standalone="no"?>
<!DOCTYPE svg PUBLIC "-//W3C//DTD SVG 20010904//EN"
 "http://www.w3.org/TR/2001/REC-SVG-20010904/DTD/svg10.dtd">
<svg version="1.0" xmlns="http://www.w3.org/2000/svg"
 width="3000.000000pt" height="2000.000000pt" viewBox="0 0 3000.000000 2000.000000"
 preserveAspectRatio="xMidYMid meet">

<g transform="translate(0.000000,2000.000000) scale(0.100000,-0.100000)"
fill="#000000" stroke="none">
<path d="M0 10000 l0 -10000 15000 0 15000 0 0 10000 0 10000 -6420 0 -6421 0
27 -47 c50 -88 89 -158 109 -198 11 -22 24 -43 29 -46 11 -8 1 -39 -13 -39 -5
0 -30 37 -57 83 -26 45 -70 119 -97 165 l-50 82 -8553 0 -8554 0 0 -10000z
m14910 9150 c0 -6 -9 -29 -20 -50 l-20 -40 116 -202 c247 -430 356 -626 332
-596 -10 12 -18 14 -25 7 -7 -7 -80 108 -238 380 l-228 391 -583 0 c-348 0
-584 4 -584 9 0 5 -3 16 -6 25 -6 14 50 16 584 16 l590 0 21 35 c19 33 61 50
61 25z m13040 -715 c0 -5 -5 -3 -10 5 -5 8 -10 20 -10 25 0 6 5 3 10 -5 5 -8
10 -19 10 -25z m51 -47 c7 -18 16 -35 20 -38 7 -6 62 -97 197 -330 l89 -155
57 -3 c53 -3 57 -5 54 -25 -3 -19 -11 -23 -57 -27 l-54 -5 -344 -595 c-245
-424 -342 -601 -338 -615 9 -30 15 -72 9 -57 -3 6 -10 10 -14 7 -5 -3 -16 6
-25 19 -14 21 -26 26 -73 28 -43 2 -57 7 -57 18 0 11 14 16 55 18 l56 3 78
137 c44 75 94 162 112 192 17 30 123 213 234 405 111 193 218 376 236 408 19
32 34 60 34 62 0 6 -243 434 -286 504 -26 42 -31 58 -23 73 13 23 23 17 40
-24z m-21595 -1700 c3 -4 -4 -24 -16 -45 l-22 -38 76 -133 c42 -74 74 -137 71
-142 -3 -5 0 -12 6 -16 8 -5 9 -3 4 6 -5 8 -4 11 3 6 6 -4 9 -13 6 -20 -3 -7
2 -20 10 -28 11 -12 12 -18 3 -28 -10 -10 -8 -12 7 -6 16 6 17 4 6 -9 -16 -19
-32 -2 -22 23 3 9 1 13 -5 9 -7 -4 -51 59 -108 156 l-98 162 -551 -3 c-561 -3
-721 1 -710 20 4 6 0 14 -7 19 -8 5 258 9 628 9 l641 0 21 34 c20 31 40 40 57
24z m10619 -1218 c3 -10 -1 -33 -9 -49 -9 -17 -16 -36 -16 -43 0 -7 67 -128
148 -268 81 -140 233 -403 336 -585 104 -181 196 -336 204 -342 12 -10 76 -13
236 -14 122 -1 212 -3 201 -6 -46 -10 -51 -13 -35 -23 10 -6 -62 -10 -196 -10
l-211 0 -24 -45 c-13 -25 -27 -45 -31 -45 -17 0 -17 42 0 77 l20 38 -48 81
c-76 129 -288 495 -539 934 l-106 185 -285 5 c-157 3 -271 6 -253 8 17 1 33 8
35 15 4 9 65 13 252 15 l247 3 27 45 c30 49 38 53 47 24z m-2465 -3756 c0 -3
-10 -14 -22 -25 -22 -17 -48 -18 -523 -18 -275 0 -493 3 -485 6 8 3 17 9 20
12 23 28 58 30 528 30 265 1 482 -2 482 -5z m-1197 -159 c-3 -9 -8 -14 -10
-11 -3 3 -2 9 2 15 9 16 15 13 8 -4z m-50 -31 c-4 -12 -2 -15 8 -12 8 3 13 11
11 17 -1 7 2 10 8 6 6 -4 4 -18 -6 -38 -31 -60 -527 -920 -571 -990 -19 -30
-21 -41 -12 -58 6 -11 9 -23 6 -25 -3 -3 -33 11 -68 30 l-64 36 40 0 c39 0 41
2 75 63 47 87 418 728 468 810 23 37 42 69 42 72 0 6 62 105 66 105 2 0 1 -7
-3 -16z m-2548 -124 c11 9 18 2 36 -32 12 -24 25 -45 29 -48 6 -5 272 -459
410 -702 l72 -128 152 -1 c94 0 143 -4 131 -9 -17 -7 -16 -9 10 -11 61 -4 -58
-17 -171 -19 -61 -1 -116 -5 -121 -9 -5 -3 -20 -25 -33 -49 -23 -42 -24 -42
-36 -20 -10 19 -9 28 9 59 l21 37 -43 73 c-24 41 -140 242 -257 447 -189 329
-228 408 -193 387 5 -3 6 1 2 10 -4 12 -8 13 -13 5 -9 -14 -30 -4 -29 13 0 8
2 8 6 -1 4 -10 8 -10 18 -2z m-8605 -2074 c0 -8 -9 -31 -21 -50 l-21 -36 59
-102 c33 -57 92 -159 132 -228 168 -289 381 -666 381 -676 0 -3 -5 -2 -11 2
-8 4 -9 0 -4 -15 3 -11 4 -21 1 -21 -8 0 -233 382 -506 858 l-93 162 -361 1
c-199 1 -349 4 -333 6 15 2 27 11 27 19 0 12 51 14 335 14 l335 0 20 40 c20
40 60 57 60 26z m543 -1121 c-3 -9 -8 -14 -10 -11 -3 3 -2 9 2 15 9 16 15 13
8 -4z m22837 -81 c0 -3 -11 -27 -25 -55 -23 -45 -28 -76 -15 -89 12 -12 61
-91 112 -180 30 -52 111 -192 179 -310 69 -118 186 -319 260 -447 124 -215
136 -232 164 -235 22 -2 31 -9 33 -25 3 -20 -1 -23 -30 -23 -31 -1 -36 -6 -82
-88 -27 -48 -119 -206 -204 -352 -85 -146 -197 -339 -250 -430 -52 -91 -116
-202 -143 -246 -27 -45 -49 -84 -49 -87 0 -3 15 -32 33 -64 19 -32 31 -65 29
-72 -3 -8 0 -11 6 -7 5 3 12 -1 15 -9 4 -9 1 -12 -9 -8 -8 3 -14 -1 -14 -8 0
-11 -2 -11 -9 0 -5 8 -7 21 -3 29 4 10 1 13 -7 8 -8 -5 -14 -1 -18 13 -3 12
-9 21 -13 21 -8 0 -36 60 -33 70 1 3 -22 4 -51 2 -48 -3 -53 -1 -64 22 l-12
26 59 0 c58 0 59 1 79 38 24 46 418 734 593 1035 38 65 69 123 69 129 0 6 -82
153 -182 327 -171 299 -303 530 -441 774 l-61 107 -53 0 c-29 0 -53 4 -53 9 0
5 27 9 59 8 33 -1 57 -5 55 -9 -2 -4 0 -9 5 -12 5 -4 8 2 6 11 -2 10 -4 22 -4
27 -1 5 -8 3 -16 -4 -9 -8 -15 -8 -15 -2 0 6 9 14 20 17 11 3 20 14 21 23 0
12 2 13 6 4 3 -9 10 -4 19 13 16 31 19 58 4 35 -11 -17 -13 -10 -4 14 5 12 34
12 34 0z m-17020 -50 c0 -3 -7 -12 -15 -20 -8 -9 -15 -28 -15 -44 0 -16 -5
-32 -12 -36 -6 -4 -8 -3 -5 2 3 6 2 16 -4 24 -6 10 -9 11 -9 3 0 -19 -27 -16
-39 5 -10 16 -10 16 -11 -1 0 -17 -9 -18 -105 -16 -58 2 -105 6 -105 11 0 4 8
9 18 9 9 1 1 5 -18 9 -22 5 21 8 113 9 143 1 148 2 158 24 9 19 49 36 49 21z
m16897 -50 c-3 -3 -12 -4 -19 -1 -8 3 -5 6 6 6 11 1 17 -2 13 -5z m-8107 -604
c-6 -11 -13 -20 -16 -20 -2 0 0 9 6 20 6 11 13 20 16 20 2 0 0 -9 -6 -20z m41
-45 c9 -10 14 -26 11 -34 -3 -8 -1 -12 5 -8 7 4 43 -48 90 -131 44 -75 106
-182 138 -237 32 -55 66 -112 74 -127 l16 -28 697 0 696 0 21 35 c15 26 27 35
46 35 l26 0 -27 -49 -27 -50 81 -138 c44 -76 110 -192 147 -258 37 -66 78
-138 91 -161 13 -24 21 -51 18 -65 -4 -20 -3 -21 4 -5 5 11 11 15 15 10 3 -6
2 -16 -3 -24 -4 -7 -6 -20 -3 -29 11 -31 -57 78 -209 339 -85 146 -161 275
-167 288 l-12 22 -697 0 -698 0 -17 -35 c-18 -38 -28 -43 -47 -20 -10 12 -8
21 8 47 l19 33 -159 280 c-88 154 -162 287 -163 295 -2 8 -4 19 -4 23 -1 5 -6
5 -13 1 -7 -4 -8 -3 -4 4 10 16 27 11 47 -13z m-10813 -287 c-6 -16 -12 -28
-15 -28 -3 0 -3 6 0 13 3 8 1 20 -3 27 -5 8 -4 23 2 34 11 20 11 20 18 1 4
-11 3 -32 -2 -47z m-23 -22 c-1 -13 -6 -31 -12 -38 -5 -7 -20 -32 -33 -55 -13
-23 -27 -40 -31 -37 -5 3 -6 -2 -2 -11 3 -10 2 -20 -3 -24 -6 -3 -23 -31 -39
-62 l-28 -56 68 -119 c38 -65 100 -173 138 -239 232 -400 336 -588 332 -595
-3 -5 -2 -16 1 -25 6 -13 9 -14 16 -3 8 10 9 10 6 -1 -6 -22 -28 -25 -28 -5 0
9 -3 14 -7 11 -7 -8 -79 111 -299 496 -272 474 -261 457 -294 457 -29 0 -44
18 -30 39 4 7 19 11 34 9 24 -3 31 4 58 52 66 121 141 240 147 236 4 -3 6 -16
6 -30z m-5848 -227 c20 -37 21 -44 9 -68 -8 -14 -18 -26 -23 -26 -4 0 -7 -3
-5 -7 1 -5 -2 -8 -8 -8 -5 0 -10 3 -10 8 1 11 30 47 30 36 0 -11 20 18 20 30
0 5 -6 3 -14 -3 -11 -9 -18 -4 -35 24 -12 20 -19 41 -16 46 12 19 31 8 52 -32z
m50 -65 c-3 -3 -12 -4 -19 -1 -8 3 -5 6 6 6 11 1 17 -2 13 -5z m18775 -676
c-6 -6 -9 0 -9 18 0 23 1 24 9 10 7 -12 7 -21 0 -28z m10300 -636 l18 -32 -25
0 c-17 0 -29 9 -39 29 -27 51 17 54 46 3z m-1706 -307 c-3 -9 -11 -13 -17 -9
-8 5 -8 9 1 14 7 5 9 14 5 21 -6 11 -5 11 5 2 7 -6 10 -19 6 -28z m-16 -30 c0
-3 -20 -39 -45 -81 -25 -41 -45 -77 -45 -79 0 -4 -79 -142 -145 -255 -18 -30
-74 -129 -125 -219 l-94 -164 22 -39 c20 -34 21 -41 8 -59 -14 -20 -15 -19
-41 25 -15 25 -32 46 -38 46 -7 0 -97 2 -202 4 -104 3 -256 5 -337 5 -92 1
-148 5 -148 11 0 6 17 11 38 11 l37 2 -40 7 c-22 4 118 8 310 9 l350 1 94 163
c52 89 123 209 157 267 34 58 90 153 124 212 35 59 68 104 73 101 6 -4 8 0 4
9 -3 9 -4 18 -2 20 6 5 45 8 45 3z m-23148 -750 c11 -24 15 -25 105 -25 51 0
93 -3 93 -7 0 -17 -58 -33 -119 -33 -64 -1 -67 -2 -88 -36 -13 -20 -23 -40
-23 -45 0 -5 -5 -9 -11 -9 -5 0 -7 -4 -4 -10 8 -12 -5 -13 -23 -1 -11 6 -7 20
18 65 l32 56 -22 35 -22 35 26 0 c18 0 30 -8 38 -25z m20793 -846 c-6 -17 -4
-20 6 -13 10 6 10 1 -2 -16 -9 -14 -28 -46 -43 -73 -15 -26 -32 -45 -36 -42
-5 3 -8 -3 -8 -12 1 -10 -31 -76 -70 -147 l-72 -128 54 -92 c125 -212 464
-802 540 -941 31 -56 41 -91 27 -99 -10 -6 -44 41 -44 61 0 7 -3 13 -7 13 -9
0 -180 290 -492 835 -107 186 -117 200 -147 205 -17 3 -32 8 -31 13 0 4 0 11
0 16 0 6 14 11 31 13 28 3 38 14 87 93 30 50 66 110 79 135 14 25 27 49 30 53
3 4 11 3 19 -3 11 -10 13 -6 10 17 -2 17 0 36 5 44 6 9 7 2 4 -21 -3 -19 -3
-32 0 -28 3 3 8 18 11 34 6 32 23 66 24 46 0 -7 5 -10 11 -7 6 4 8 13 5 21 -3
8 -3 21 0 29 9 23 16 18 9 -6z"/>
<path d="M27967 18403 c-3 -5 1 -19 8 -33 l14 -25 -3 28 c-3 30 -11 43 -19 30z"/>
<path d="M2656 8253 c-6 -14 -5 -15 5 -6 7 7 10 15 7 18 -3 3 -9 -2 -12 -12z"/>
<path d="M25520 5449 c0 -11 4 -18 10 -14 5 3 7 12 3 20 -7 21 -13 19 -13 -6z"/>
<path d="M17376 7293 c-6 -14 -5 -15 5 -6 7 7 10 15 7 18 -3 3 -9 -2 -12 -12z"/>
<path d="M6490 7061 c0 -6 4 -13 10 -16 6 -3 7 1 4 9 -7 18 -14 21 -14 7z"/>
<path d="M6455 6990 c3 -5 8 -10 11 -10 2 0 4 5 4 10 0 6 -5 10 -11 10 -5 0
-7 -4 -4 -10z"/>
<path d="M26055 2069 c-4 -6 -5 -12 -2 -15 2 -3 7 2 10 11 7 17 1 20 -8 4z"/>
<path d="M26090 2009 c0 -8 5 -21 10 -29 8 -12 9 -10 7 7 -4 26 -17 43 -17 22z"/>
<path d="M17280 19735 c0 -5 5 -17 10 -25 5 -8 10 -10 10 -5 0 6 -5 17 -10 25
-5 8 -10 11 -10 5z"/>
</g>
</svg>
